# xmcd CD database file
#
# Track frame offsets:
#	150
#	12020
#	36175
#	48909
#	60995
#	78805
#	95859
#	110834
#	124648
#	138678
#	154868
#	173299
#	185358
#	197930
#	221356
#	235602
#	256868
#	276379
#	292623
#	305303
#
# Disc length: 4426 seconds
#
# Revision: 0
# Processed by: cddbd v1.5.2PL0 Copyright (c) Steve Scherf et al.
# Submitted via: CDex 1.70beta2
#
DISCID=09114814
DTITLE=Monty Good - Monty Good and The Honky Tonk Heroes Bank
DYEAR=2005
DGENRE=Country
TTITLE0=Whiskey River
TTITLE1=Make Up and Faded Blue Jeans
TTITLE2=Slide Off Your Satin Sheets
TTITLE3=Green Snakes
TTITLE4=Home in San Antone
TTITLE5=Window Up Above
TTITLE6=Jambalya
TTITLE7=Ramblin' Man
TTITLE8=Wine Me Up
TTITLE9=Corina, Corina
TTITLE10=I've Just Destroyed the World
TTITLE11=The Race is On
TTITLE12=What a Way to Love
TTITLE13=Night Life
TTITLE14=Take Me Back to Tulsa
TTITLE15=A Way to Survive
TTITLE16=Workin' Man Blues
TTITLE17=Deep Water
TTITLE18=Pass Me By
TTITLE19=Roly, Poly
EXTD=YEAR: 2005
EXTT0=
EXTT1=
EXTT2=
EXTT3=
EXTT4=
EXTT5=
EXTT6=
EXTT7=
EXTT8=
EXTT9=
EXTT10=
EXTT11=
EXTT12=
EXTT13=
EXTT14=
EXTT15=
EXTT16=
EXTT17=
EXTT18=
EXTT19=
PLAYORDER=
